<svg xmlns="http://www.w3.org/2000/svg" viewBox="0 0 201 169.33"><title>Soe block - Special opportunities</title><path d="M97.27,162.52c-.16,0-.49-.24-1-.73q-7.57-4.88-10.62-7.08T69.56,142.63Q56.5,132.74,48,125a249.91,249.91,0,0,1-18.8-19.17A113.78,113.78,0,0,1,13.53,84.4a51.39,51.39,0,0,1-6.1-27,56.82,56.82,0,0,1,8.06-27.71Q29.64,6.52,56.75,6.52q29.05,0,44.43,23.93Q116.56,6.52,145.61,6.52q27.34,0,41,23.19a57.71,57.71,0,0,1,8.18,27.59,51.54,51.54,0,0,1-6,27.1A128,128,0,0,1,172.1,107a237.42,237.42,0,0,1-20.87,20.75q-10,8.67-21.85,17.58t-16.48,12q-4.64,3.06-8.06,5.25a5.81,5.81,0,0,1-3.66,1A7.75,7.75,0,0,1,97.27,162.52ZM28.18,37.28a43.82,43.82,0,0,0-6,20.39q-.61,11.35,4,19.65,17.09,31,75,70.31,58.1-40,75-70.31,4.63-8.3,4-19.65a43.91,43.91,0,0,0-6-20.39q-8.79-16.11-28.56-16.11A41.1,41.1,0,0,0,128,24.71a29,29,0,0,0-11.6,9.16A66.48,66.48,0,0,0,110.7,43a32.23,32.23,0,0,0-2.44,6.71,7.09,7.09,0,0,1-2.56,4.15,7,7,0,0,1-4.52,1.71q-5.62,0-7.32-5.86a37.45,37.45,0,0,0-2.44-6.59A67.4,67.4,0,0,0,85.92,34q-3.79-5.49-11.47-9.16a40.71,40.71,0,0,0-17.7-3.66Q37,21.17,28.18,37.28Z" fill="#003a6d"/><path d="M73.72,101.93a22.91,22.91,0,0,0-4.2,3.81,54.21,54.21,0,0,1-6.84-.2,1.61,1.61,0,0,1-1.27-1.61,4.83,4.83,0,0,1,.88-2.88,7.88,7.88,0,0,1,2.54-2.54q5.66-3.61,8.79-4.3,1.37-.29,1.46-1.32T73.62,89q-1.08-1.76-1.07-6-.2-6.93,4.49-8.5a6.34,6.34,0,0,1,4.64,0A5.72,5.72,0,0,1,85,77.52a14.47,14.47,0,0,1,.59,6.25,15.39,15.39,0,0,1-1.37,6.06,6.18,6.18,0,0,0-1,3.08q.15.83,1.51,1.22l2.25,1A95.37,95.37,0,0,0,73.72,101.93Zm53.13,2.93a12.12,12.12,0,0,1,4.69,4.44,9.91,9.91,0,0,1,1.46,5.81,4,4,0,0,1-.63,2.25,6.8,6.8,0,0,1-2.78.68q-2.64.39-27,.39-28.32,0-30.47-.59A2.76,2.76,0,0,1,70,115a9.23,9.23,0,0,1,1.51-5.18,13.48,13.48,0,0,1,4.39-4.59,69.31,69.31,0,0,1,8.59-4.69,42.39,42.39,0,0,1,7.23-2.93q2.54-.49,2.64-2.44t-2.64-6.93q-1.76-3-2-10.65a23,23,0,0,1,1.61-9.86,10.75,10.75,0,0,1,6.4-5.47,12.07,12.07,0,0,1,4-.68,11.7,11.7,0,0,1,6.1,1.66,10,10,0,0,1,4.05,4.39q1.76,3.71,1.32,11.18t-2.39,11A19.27,19.27,0,0,0,109,94a2.64,2.64,0,0,0,.2,2.29,4.24,4.24,0,0,0,2.25,1.27Q115.32,98.61,126.85,104.86ZM138,98.22q3.71,2.05,3.42,5.66a2.51,2.51,0,0,1-.34,1.32,3,3,0,0,1-1.51.34,44.34,44.34,0,0,1-5.66.2,15.69,15.69,0,0,0-5.18-4.3A116.16,116.16,0,0,0,116.2,95a19.11,19.11,0,0,1,2.25-.78c1-.2,1.48-.63,1.51-1.32s-.47-2-1.51-3.86a13.51,13.51,0,0,1-1.07-6q-.2-6.93,4.39-8.5a6.47,6.47,0,0,1,4.69,0,5.35,5.35,0,0,1,3.22,2.93,15.3,15.3,0,0,1,.68,6.25,14.57,14.57,0,0,1-1.27,6.06A6.82,6.82,0,0,0,128,92.9q.1.83,1.37,1.22A68.61,68.61,0,0,1,138,98.22Z" fill="#f7921f"/></svg>