<svg xmlns="http://www.w3.org/2000/svg" viewBox="0 0 304 203.5"><title>Seo block - Simple way</title><path d="M218,7.58h31.29L293.66,52A7,7,0,0,1,296,56.91a6.56,6.56,0,0,1-1.17,4.1l-1.17,1.41Q278,78,272.8,83.28a7,7,0,0,1-4.92,2.34,6.07,6.07,0,0,1-4-1.17l-1.52-1.17L218,38.87ZM234.71,31a6.81,6.81,0,0,0,6.68-6.68,6,6,0,0,0-2-4.57,6.63,6.63,0,0,0-4.69-1.87,6.4,6.4,0,0,0-6.45,6.45A6.61,6.61,0,0,0,230.14,29,6,6,0,0,0,234.71,31Z" fill="#f7921f"/><path d="M196.63,139.55V153H67.43L44.87,20.31H8V7.13H56.29L78.85,139.55ZM82.37,160.93a15.65,15.65,0,0,1,11.72,4.83,16.05,16.05,0,0,1,4.69,11.57,16.41,16.41,0,0,1-4.69,11.87,16.44,16.44,0,0,1-23.29,0A16.13,16.13,0,0,1,66,177.34a16.51,16.51,0,0,1,16.41-16.41ZM218,6.83,197.8,124H92L71.53,6.83Zm-112.21,36V20.31H87.64l4.1,22.56Zm0,13.48h-12L97,75.09h8.79Zm0,32.23H99.36l3.81,22h2.64Zm13.48-45.7h18.46V20.31H119.28Zm18.46,32.23V56.34H119.28V75.09Zm-18.46,35.45h18.46v-22H119.28Zm31.93-90.23V42.87H170V20.31Zm0,54.79H170V56.34H151.22ZM170,88.57H151.22v22H170Zm1.17,77.2a16.62,16.62,0,0,1,23.44,0,16.06,16.06,0,0,1,4.69,11.57,16.41,16.41,0,0,1-4.69,11.87,16.62,16.62,0,0,1-23.44,0,16.39,16.39,0,0,1-4.69-11.87A16,16,0,0,1,171.14,165.77Zm12.3-122.9h14.65l4.1-22.56H183.44Zm12.3,13.48h-12.3V75.09h9.08Zm-12.3,32.23v22h2.93l4.1-22Z" fill="#003a6d"/></svg>